<svg width="150" height="150" fill="none" xmlns="http://www.w3.org/2000/svg"><g clip-path="url(#clip0_1_55)"><path fill="#AB76ED" d="M0 0h150v150H0z"/><path fill-rule="evenodd" clip-rule="evenodd" d="M75 71.928c7.535 0 10.714 7.267 14.286 14.286 3.571 7.019 7.143 10.428 7.143 14.273-.002 7.416-7.143 7.156-10.715 7.156-3.571 0-5.357-1.072-10.714-1.072s-7.143 1.072-10.714 1.072l-.759-.002c-3.733-.03-9.956-.475-9.956-7.154 0-3.584 3.572-7.201 7.143-14.273C64.286 79.142 67.465 71.928 75 71.928z" fill="#fff" stroke="#fff" stroke-width="8"/><path d="M97.943 51.737c1.14-6.17-1.413-11.758-5.7-12.48-4.289-.722-8.689 3.696-9.829 9.866-1.14 6.17 1.413 11.758 5.701 12.48 4.288.721 8.688-3.696 9.828-9.866zM67.93 49.124c-1.139-6.17-5.539-10.587-9.827-9.865-4.288.721-6.84 6.309-5.7 12.48 1.14 6.17 5.54 10.587 9.827 9.865 4.288-.722 6.84-6.309 5.7-12.48zM48.548 71.567c-2.543-5.085-7.553-7.925-11.19-6.344-3.636 1.58-4.521 6.983-1.978 12.067 2.544 5.084 7.553 7.925 11.19 6.344 3.636-1.58 4.522-6.983 1.978-12.067zm66.072 7.113c2.543-5.65 1.657-11.653-1.979-13.409-3.636-1.756-8.646 1.4-11.189 7.049-2.544 5.65-1.658 11.652 1.978 13.408 3.637 1.757 8.646-1.4 11.19-7.048z" fill="#fff" stroke="#fff" stroke-width="5"/><g clip-path="url(#clip1_1_55)"><path fill="#07F" d="M0 0h150v150H0z"/><g clip-path="url(#clip2_1_55)" fill="#FFC700" stroke="#FFC700"><path fill-rule="evenodd" clip-rule="evenodd" d="M75 83.857c12.96 0 18.429 12.5 24.572 24.571 6.142 12.072 12.286 17.937 12.285 24.55-.002 12.755-12.285 25.383-18.428 25.383-6.143 0-9.215 14.251-18.43 14.251-9.213 0-12.285-14.251-18.427-14.251l-1.306-.003c-6.42-.051-17.123-13.893-17.123-25.38 0-6.165 6.143-12.386 12.286-24.55C56.57 96.265 62.039 83.857 75 83.857z" stroke-width="13.76"/><path d="M114.462 49.127c1.96-10.613-2.43-20.223-9.805-21.465-7.376-1.241-14.944 6.356-16.904 16.97-1.96 10.613 2.43 20.223 9.805 21.465 7.375 1.241 14.943-6.356 16.904-16.97zm-51.621-4.493c-1.96-10.613-9.528-18.21-16.904-16.97-7.375 1.242-11.765 10.852-9.805 21.466 1.96 10.613 9.529 18.21 16.904 16.97 7.376-1.242 11.765-10.852 9.805-21.466zm-33.338 38.6c-4.374-8.744-12.991-13.63-19.246-10.911C4.003 75.04 2.48 84.334 6.854 93.079c4.375 8.745 12.991 13.63 19.246 10.912 6.254-2.719 7.778-12.012 3.403-20.757zm113.643 12.235c4.375-9.717 2.851-20.042-3.403-23.063-6.255-3.02-14.872 2.408-19.246 12.124-4.375 9.717-2.851 20.042 3.403 23.063 6.255 3.02 14.872-2.408 19.246-12.124z" stroke-width="8.6"/></g></g></g><defs><clipPath id="clip0_1_55"><path fill="#fff" d="M0 0h150v150H0z"/></clipPath><clipPath id="clip1_1_55"><path fill="#fff" d="M0 0h150v150H0z"/></clipPath><clipPath id="clip2_1_55"><path fill="#fff" transform="translate(-11 4)" d="M0 0h172v172H0z"/></clipPath></defs></svg>