<svg width="100" height="100" fill="none" xmlns="http://www.w3.org/2000/svg"><path d="M0 48C0 25.373 0 14.059 7.03 7.03 14.058 0 25.372 0 48 0h4c22.627 0 33.941 0 40.97 7.03C100 14.058 100 25.372 100 48v4c0 22.627 0 33.941-7.03 40.97C85.942 100 74.628 100 52 100h-4c-22.627 0-33.941 0-40.97-7.03C0 85.942 0 74.628 0 52v-4z" fill="#07F"/><path d="M52 0h-4C25.373 0 14.059 0 7.03 7.03.88 13.177.11 22.603.013 40.01L50 79l49.986-38.99c-.096-17.406-.867-26.832-7.015-32.98C85.94 0 74.627 0 52 0z" fill="#FF22A6"/><path fill-rule="evenodd" clip-rule="evenodd" d="M36.774 75.01l-.03-.023C31.36 70.785 26.656 67.02 23.481 63.1 19.697 58.428 18 53.513 18 47.63 18 35.506 27.922 26 39.706 26c3.788 0 7.223.93 10.271 2.555C53.04 26.924 56.491 26 60.294 26 72.078 26 82 35.506 82 47.63c0 5.883-1.697 10.798-5.481 15.47-3.176 3.921-7.879 7.685-13.262 11.887l-.031.024-5.706 4.417a12.28 12.28 0 01-15.04 0l-5.706-4.417zm18.247-37.722c-1.822.895-3.495 2.286-5.021 4.175-1.6-1.94-3.338-3.355-5.214-4.246a11.694 11.694 0 00-5.08-1.135c-6.405 0-11.667 5.157-11.667 11.548 0 7.175 3.66 10.651 14.865 19.396l5.705 4.418a2.275 2.275 0 002.782 0l5.705-4.418c11.205-8.745 14.865-12.22 14.865-19.396 0-6.39-5.262-11.548-11.667-11.548-1.877 0-3.635.402-5.273 1.206z" fill="#fff"/></svg>