<svg width="44" height="44" fill="none" xmlns="http://www.w3.org/2000/svg"><path fill="#194AF4" d="M0 0h44v44H0z"/><path fill-rule="evenodd" clip-rule="evenodd" d="M29.167 27.08c0 3.617-2.882 6.242-7.458 6.242-2.961 0-5.266-1.464-6.986-3.138l1.531-1.69c1.432 1.363 3.117 2.689 5.425 2.689 2.564 0 5.329-1.437 5.329-4.02 0-2.143-1.706-3.541-5.286-4.645-4.08-1.25-6.153-2.941-6.153-6.122 0-3.149 2.665-5.733 6.462-5.733 2.835 0 4.612 1.21 6.338 2.755l-1.504 1.67c-1.515-1.342-2.958-2.252-4.729-2.252-2.196 0-4.36 1.416-4.36 3.455 0 1.849 1.061 3.024 4.808 4.172 3.431 1.057 6.583 2.695 6.583 6.617z" fill="#fff"/></svg>